<?xml version="1.0" encoding="utf-8"?>
<!-- Uploaded to: SVG Repo, www.svgrepo.com, Generator: SVG Repo Mixer Tools -->
<svg fill="#000000" width="800px" height="800px" viewBox="-6.5 0 32 32" version="1.1" xmlns="http://www.w3.org/2000/svg">
<title>building</title>
<path d="M1.281 5.125h16.406c0.719 0 1.281 0.563 1.281 1.281v18.5c0 0.719-0.563 1.281-1.281 1.281h-4.219v-4.156h-7.969v4.156h-4.219c-0.719 0-1.281-0.563-1.281-1.281v-18.5c0-0.719 0.563-1.281 1.281-1.281zM2.813 9.313h13.344v-1.563h-13.344v1.563zM2.813 12.906h13.344v-1.563h-13.344v1.563zM2.813 16.5h13.344v-1.563h-13.344v1.563zM2.813 20.094h13.344v-1.563h-13.344v1.563zM9.063 26.875h-2.719v-4h2.719v4zM12.625 26.875h-2.719v-4h2.719v4z"></path>
</svg>