<?xml version="1.0" encoding="utf-8"?>
<!-- Uploaded to: SVG Repo, www.svgrepo.com, Generator: SVG Repo Mixer Tools -->
<svg fill="#000000" width="800px" height="800px" viewBox="-5.5 0 32 32" version="1.1" xmlns="http://www.w3.org/2000/svg">
<title>memo</title>
<path d="M4.938 4.781h12.531c1.969 0 3.625 1.656 3.625 3.625v15.156c0 1.969-1.656 3.625-3.625 3.625h-12.531c-1.969 0-3.625-1.656-3.625-3.625v-0.344h-0.625c-0.375 0-0.688-0.281-0.688-0.625s0.313-0.688 0.688-0.688h0.625v-5.25h-0.625c-0.375 0-0.688-0.313-0.688-0.656s0.313-0.688 0.688-0.688h0.625v-5.25h-0.625c-0.375 0-0.688-0.313-0.688-0.656s0.313-0.656 0.688-0.656h0.625v-0.344c0-1.969 1.656-3.625 3.625-3.625zM19.094 23.563v-15.156c0-0.906-0.719-1.625-1.625-1.625h-12.531c-0.906 0-1.656 0.719-1.656 1.625v0.344h1.313c0.344 0 0.688 0.313 0.688 0.656s-0.344 0.656-0.688 0.656h-1.313v5.25h1.313c0.344 0 0.688 0.344 0.688 0.688s-0.344 0.656-0.688 0.656h-1.313v5.25h1.313c0.344 0 0.688 0.344 0.688 0.688s-0.344 0.625-0.688 0.625h-1.313v0.344c0 0.906 0.75 1.656 1.656 1.656h12.531c0.906 0 1.625-0.75 1.625-1.656zM7.906 8.75h7.906c0.375 0 0.656 0.313 0.656 0.656s-0.281 0.656-0.656 0.656h-7.906c-0.344 0-0.688-0.313-0.688-0.656s0.344-0.656 0.688-0.656zM7.906 11.375h7.906c0.375 0 0.656 0.313 0.656 0.656 0 0.375-0.281 0.656-0.656 0.656h-7.906c-0.344 0-0.688-0.281-0.688-0.656 0-0.344 0.344-0.656 0.688-0.656zM7.906 14h7.906c0.375 0 0.656 0.313 0.656 0.688 0 0.344-0.281 0.625-0.656 0.625h-7.906c-0.344 0-0.688-0.281-0.688-0.625 0-0.375 0.344-0.688 0.688-0.688zM7.906 16.656h7.906c0.375 0 0.656 0.313 0.656 0.656 0 0.375-0.281 0.656-0.656 0.656h-7.906c-0.344 0-0.688-0.281-0.688-0.656 0-0.344 0.344-0.656 0.688-0.656zM7.906 19.281h7.906c0.375 0 0.656 0.313 0.656 0.688 0 0.344-0.281 0.625-0.656 0.625h-7.906c-0.344 0-0.688-0.281-0.688-0.625 0-0.375 0.344-0.688 0.688-0.688zM7.906 21.906h7.906c0.375 0 0.656 0.344 0.656 0.688s-0.281 0.625-0.656 0.625h-7.906c-0.344 0-0.688-0.281-0.688-0.625s0.344-0.688 0.688-0.688z"></path>
</svg>