<?xml version="1.0" standalone="no"?>
<!DOCTYPE svg PUBLIC "-//W3C//DTD SVG 20010904//EN"
 "http://www.w3.org/TR/2001/REC-SVG-20010904/DTD/svg10.dtd">
<svg version="1.0" xmlns="http://www.w3.org/2000/svg"
 width="500.000000pt" height="500.000000pt" viewBox="0 0 500.000000 500.000000"
 preserveAspectRatio="xMidYMid meet">

<g transform="translate(0.000000,500.000000) scale(0.100000,-0.100000)"
fill="#000000" stroke="none">
<path d="M765 4890 c-254 -28 -489 -199 -595 -434 -70 -153 -65 -11 -65 -1951
l0 -1750 22 -84 c73 -272 265 -466 539 -543 l79 -23 1685 -3 c1112 -2 1718 1
1782 7 280 30 488 175 609 425 79 163 74 18 74 1966 0 1948 5 1803 -74 1966
-100 207 -264 343 -490 407 l-76 22 -1710 1 c-940 1 -1741 -2 -1780 -6z m1828
-501 c23 -12 303 -173 622 -357 319 -185 632 -365 695 -400 150 -84 219 -131
244 -165 20 -27 21 -42 24 -370 2 -188 1 -351 -2 -363 -7 -26 -254 -174 -291
-174 -14 0 -29 9 -35 19 -6 12 -10 134 -10 327 0 287 -1 310 -20 349 -11 23
-32 50 -47 61 -27 20 -293 174 -933 541 -353 203 -334 199 -516 95 -586 -337
-1056 -608 -1087 -630 -21 -14 -47 -43 -58 -63 -18 -37 -19 -67 -19 -759 0
-784 -3 -746 57 -801 28 -27 1149 -680 1210 -705 44 -19 117 -18 156 2 18 9
295 168 616 353 507 292 587 341 610 375 26 39 26 42 31 277 3 131 7 240 10
243 22 21 269 156 287 156 12 0 27 -9 33 -19 14 -27 14 -753 -1 -803 -13 -49
-58 -92 -156 -149 -135 -80 -1396 -806 -1430 -823 -40 -20 -125 -21 -163 -1
-58 30 -1486 858 -1522 882 -21 14 -46 44 -58 67 -20 42 -20 58 -20 949 0 976
-2 946 51 994 19 17 1399 819 1536 893 51 27 131 27 186 -1z m158 -760 c107
-61 200 -116 207 -121 21 -18 14 -55 -15 -76 -68 -46 -243 -142 -261 -142 -10
0 -43 13 -73 30 -41 23 -67 30 -110 30 -51 0 -66 -6 -204 -85 -82 -47 -156
-91 -164 -99 -8 -9 -11 -24 -7 -39 4 -19 37 -42 138 -100 183 -103 192 -107
235 -107 53 1 82 15 437 220 172 99 321 180 331 180 26 0 303 -159 321 -184
12 -17 14 -119 14 -637 0 -573 -1 -618 -17 -637 -10 -12 -245 -152 -523 -312
l-505 -291 -61 3 c-53 3 -73 11 -165 64 -57 34 -282 163 -499 288 -217 126
-403 237 -412 248 -17 19 -18 56 -18 468 0 247 3 455 6 464 4 10 18 16 38 15
41 0 266 -135 283 -169 9 -18 13 -99 13 -296 0 -201 3 -274 13 -286 6 -9 163
-103 347 -210 l335 -193 65 0 65 0 347 200 347 200 1 443 0 444 -32 -20 c-117
-71 -618 -358 -652 -373 -56 -25 -108 -24 -164 5 -145 74 -871 501 -894 526
-31 34 -35 58 -14 98 14 27 122 92 725 439 285 164 258 163 522 12z"/>
</g>
</svg>
